<?xml version="1.0" encoding="UTF-8"?>
<svg viewBox="0 0 409.04269 409.04269" xmlns="http://www.w3.org/2000/svg" xmlns:xlink="http://www.w3.org/1999/xlink">
 <g transform="translate(-245.49 -532.84)">
  <path d="m436.2 533.31c-112.52 7.6098-197.84 105.32-190.23 217.83s105.32 197.88 217.84 190.27 197.87-105.35 190.26-217.87-105.35-197.84-217.86-190.23zm2.0244 29.932c96.341-6.5158 179.39 65.984 185.91 162.33 5.8415 86.371-51.852 162.07-133.28 181.5 0.35289-1.3418 0.63019-2.7603 0.87316-4.2248 2.1525-7.4131 3.458-18.47 2.665-19.412-2.1684-2.5755 8.7419-29.483 13.932-34.362 6.8761-6.464 10.113-20.973 8.1758-36.573-1.4385-11.582-0.69041-17.605 4.276-34.492 3.845-13.075 7.7889-22.395 10.936-25.859 2.7081-2.9806 7.8276-11.267 11.347-18.401 6.7463-13.676 19.931-28.483 28.122-31.563 8.2079-3.0865 15.714-15.654 14.939-25.034-0.91434-11.053-4.0452-15.653-9.0739-13.293-2.9184 1.3695-4.8997 0.85516-7.6537-2.0194-3.2541-3.3966-3.8314-3.2371-4.6717 1.3182-0.52791 2.8616-2.4324 5.3521-4.2332 5.4857-2.5438 0.18858-2.386-1.8152 0.74604-8.8831 2.2173-5.0036 3.9623-12.858 3.8933-17.459-0.12225-8.1472-7.255-26.914-10.626-27.909-0.9258-0.27331-7.8849 5.036-15.429 11.755-20.313 18.091-52.24 40.986-57.774 41.43-2.6622 0.21392-7.6978-0.19994-11.18-0.90389-6.4049-1.2947-16.056 3.0692-38.874 17.538-9.8582 6.251-15.772 7.9656-29.738 8.5888-10.735 0.47899-20.624 2.6465-25.74 5.656-7.6064 4.475-8.1616 5.3891-6.7453 10.949 0.85076 3.3398 6.1703 10.662 11.812 16.271l10.243 10.207-6.2516 9.9132c-3.4498 5.4585-7.2734 13.181-8.4564 17.141s-5.7804 11.116-10.231 15.914c-8.5816 9.2527-24.821 36.132-30.029 49.671-1.2901 3.3536-14.481 12.076-23.598 16.474-20.828-26.597-34.158-59.542-36.615-95.873-6.5158-96.341 65.986-179.36 162.33-185.88z"/>
 </g>
</svg>
